<svg width="209" height="60" viewBox="0 0 209 60" fill="none" xmlns="http://www.w3.org/2000/svg">
<path d="M60.864 33.08V36.152H81.24V33.08H60.864ZM69.024 35.072V43.28H72.888V35.072H69.024ZM63.072 21.776V31.016H78.912V21.776H63.072ZM75.12 24.8V27.992H66.888V24.8H75.12ZM96.6701 20.72V43.328H100.558V20.72H96.6701ZM82.7501 22.448V38.168H94.0781V22.448H90.2381V27.68H86.5901V22.448H82.7501ZM86.5901 30.656H90.2381V35.096H86.5901V30.656ZM102.62 37.784V40.904H122.996V37.784H102.62ZM110.828 33.08V39.176H114.692V33.08H110.828ZM104.06 22.424V25.496H121.46V22.424H104.06ZM104.204 31.352V34.376H121.364V31.352H104.204ZM106.892 24.992V31.64H110.756V24.992H106.892ZM114.764 24.992V31.64H118.628V24.992H114.764ZM125.754 31.592V34.64H141.786V31.592H125.754ZM123.498 37.88V40.976H143.874V37.88H123.498ZM131.754 33.128V39.224H135.618V33.128H131.754ZM125.754 22.112V32.744H129.69V25.184H141.642V22.112H125.754ZM128.514 26.864V29.84H141.114V26.864H128.514ZM152.296 22.808V23.312C152.296 29.72 151.024 33.632 144.088 37.16L146.128 40.112C154.696 35.72 156.064 30.032 156.064 22.808H152.296ZM145.576 22.808V25.856H154.576V22.808H145.576ZM152.584 28.304L144.376 28.736L144.808 32L152.584 31.256V28.304ZM158.296 20.72V43.232H162.184V20.72H158.296ZM161.2 29.048V32.216H165.064V29.048H161.2ZM167.511 30.92V33.968H183.543V30.92H167.511ZM165.255 37.616V40.76H185.631V37.616H165.255ZM167.511 22.472V32.168H171.351V25.592H183.399V22.472H167.511Z" fill="#6574FF"/>
<path d="M48.8889 17.7778V19.5556H45.3333V17.7778C45.3333 16.8 44.5333 16 43.5556 16H32.8889C31.9111 16 31.1111 16.8 31.1111 17.7778V19.5556H27.5556V17.7778C27.5556 16.8 26.7556 16 25.7778 16C24.8 16 24 16.8 24 17.7778V46.2222C24 47.2 24.8 48 25.7778 48C26.7556 48 27.5556 47.2 27.5556 46.2222V44.4444H31.1111V46.2222C31.1111 47.2 31.9111 48 32.8889 48H43.5556C44.5333 48 45.3333 47.2 45.3333 46.2222V44.4444H48.8889V46.2222C48.8889 47.2 49.6889 48 50.6667 48C51.6444 48 52.4444 47.2 52.4444 46.2222V17.7778C52.4444 16.8 51.6444 16 50.6667 16C49.6889 16 48.8889 16.8 48.8889 17.7778ZM31.1111 40.8889H27.5556V37.3333H31.1111V40.8889ZM31.1111 33.7778H27.5556V30.2222H31.1111V33.7778ZM31.1111 26.6667H27.5556V23.1111H31.1111V26.6667ZM48.8889 40.8889H45.3333V37.3333H48.8889V40.8889ZM48.8889 33.7778H45.3333V30.2222H48.8889V33.7778ZM48.8889 26.6667H45.3333V23.1111H48.8889V26.6667Z" fill="#6574FF"/>
</svg>
